<mxfile host="app.diagrams.net" modified="2023-10-12T06:12:11.969Z" agent="Mozilla/5.0 (Windows NT 10.0; Win64; x64) AppleWebKit/537.36 (KHTML, like Gecko) Chrome/117.0.0.0 Safari/537.36" etag="dpP0gSoHdiKJSg-iwwUw" version="22.0.4" type="device">
  <diagram name="Page-1" id="4TptZLQsDFRwfQe8o2uS">
    <mxGraphModel dx="1285" dy="655" grid="1" gridSize="10" guides="1" tooltips="1" connect="1" arrows="1" fold="1" page="1" pageScale="1" pageWidth="827" pageHeight="1169" math="0" shadow="0">
      <root>
        <mxCell id="0" />
        <mxCell id="1" parent="0" />
        <mxCell id="L_XBA1jwa-UQU-hqbk6I-1" value="" style="rounded=0;whiteSpace=wrap;html=1;fillColor=#dae8fc;strokeColor=#6c8ebf;" vertex="1" parent="1">
          <mxGeometry x="120" y="220" width="780" height="1410" as="geometry" />
        </mxCell>
        <mxCell id="L_XBA1jwa-UQU-hqbk6I-3" value="" style="rounded=0;whiteSpace=wrap;html=1;fillColor=#d5e8d4;strokeColor=#82b366;" vertex="1" parent="1">
          <mxGeometry x="130" y="230" width="760" height="1330" as="geometry" />
        </mxCell>
        <mxCell id="L_XBA1jwa-UQU-hqbk6I-23" value="&lt;b&gt;&lt;font style=&quot;font-size: 30px;&quot;&gt;...&lt;/font&gt;&lt;/b&gt;" style="rounded=0;whiteSpace=wrap;html=1;fillColor=#d5e8d4;strokeColor=#000000;" vertex="1" parent="1">
          <mxGeometry x="130" y="1570" width="760" height="50" as="geometry" />
        </mxCell>
        <mxCell id="L_XBA1jwa-UQU-hqbk6I-44" value="&lt;div style=&quot;text-align: justify;&quot;&gt;&lt;b style=&quot;background-color: initial;&quot;&gt;timer start time &amp;lt;8 byte&amp;gt;&lt;/b&gt;&lt;/div&gt;&lt;div style=&quot;border-color: var(--border-color); text-align: justify; line-height: 18px;&quot;&gt;&lt;b style=&quot;border-color: var(--border-color); background-color: initial;&quot;&gt;type: &lt;/b&gt;&lt;span style=&quot;border-color: var(--border-color); background-color: initial;&quot;&gt;long&amp;nbsp; &amp;nbsp;&lt;/span&gt;&lt;b style=&quot;border-color: var(--border-color);&quot;&gt;pos:&lt;/b&gt;&amp;nbsp;0&lt;/div&gt;&lt;div style=&quot;border-color: var(--border-color); text-align: justify; line-height: 18px;&quot;&gt;&lt;b style=&quot;border-color: var(--border-color); background-color: initial;&quot;&gt;binary:&amp;nbsp;&lt;/b&gt;0x00 0x00 0x01 0x89 0xc1 0x6d 0x81 0x97&lt;/div&gt;&lt;div style=&quot;border-color: var(--border-color); text-align: justify; line-height: 18px;&quot;&gt;&lt;b style=&quot;border-color: var(--border-color); background-color: initial;&quot;&gt;value:&amp;nbsp;&lt;/b&gt;1691167326615&lt;/div&gt;" style="rounded=0;whiteSpace=wrap;html=1;fillColor=#dae8fc;strokeColor=#6c8ebf;" vertex="1" parent="1">
          <mxGeometry x="120" y="110" width="780" height="110" as="geometry" />
        </mxCell>
        <mxCell id="L_XBA1jwa-UQU-hqbk6I-45" value="&lt;div style=&quot;text-align: justify;&quot;&gt;&lt;b style=&quot;background-color: initial;&quot;&gt;real time &amp;lt;8 byte&amp;gt;&lt;/b&gt;&lt;/div&gt;&lt;div style=&quot;border-color: var(--border-color); text-align: justify; line-height: 18px;&quot;&gt;&lt;b style=&quot;border-color: var(--border-color); background-color: initial;&quot;&gt;type: &lt;/b&gt;&lt;span style=&quot;border-color: var(--border-color); background-color: initial;&quot;&gt;long&amp;nbsp; &amp;nbsp;&lt;/span&gt;&lt;b style=&quot;border-color: var(--border-color);&quot;&gt;pos:&lt;/b&gt;&amp;nbsp;16&lt;/div&gt;&lt;div style=&quot;border-color: var(--border-color); text-align: justify; line-height: 18px;&quot;&gt;&lt;b style=&quot;border-color: var(--border-color); background-color: initial;&quot;&gt;binary: &lt;/b&gt;&lt;span style=&quot;border-color: var(--border-color); background-color: initial;&quot;&gt;0x&lt;/span&gt;00 0x00 0x01 0x89 0xc1 0x6d 0x85 0xe4&lt;/div&gt;&lt;div style=&quot;border-color: var(--border-color); text-align: justify; line-height: 18px;&quot;&gt;&lt;b style=&quot;border-color: var(--border-color); background-color: initial;&quot;&gt;value:&amp;nbsp;&lt;/b&gt;1691167327716&lt;/div&gt;" style="rounded=0;whiteSpace=wrap;html=1;fillColor=#d5e8d4;strokeColor=#82b366;" vertex="1" parent="1">
          <mxGeometry x="420" y="230" width="300" height="90" as="geometry" />
        </mxCell>
        <mxCell id="L_XBA1jwa-UQU-hqbk6I-46" value="&lt;div style=&quot;text-align: justify;&quot;&gt;&lt;b style=&quot;background-color: initial; border-color: var(--border-color);&quot;&gt;thread id&lt;b style=&quot;text-align: justify; background-color: initial;&quot;&gt;&amp;lt;8 byte&amp;gt;&lt;/b&gt;&lt;/b&gt;&lt;/div&gt;&lt;div style=&quot;border-color: var(--border-color); text-align: justify; line-height: 18px;&quot;&gt;&lt;b style=&quot;border-color: var(--border-color); background-color: initial;&quot;&gt;type: &lt;/b&gt;&lt;span style=&quot;border-color: var(--border-color); background-color: initial;&quot;&gt;long&amp;nbsp; &amp;nbsp;&lt;/span&gt;&lt;b style=&quot;border-color: var(--border-color);&quot;&gt;pos:&lt;/b&gt;&amp;nbsp;8&lt;/div&gt;&lt;div style=&quot;border-color: var(--border-color); text-align: justify; line-height: 18px;&quot;&gt;&lt;b style=&quot;border-color: var(--border-color); background-color: initial;&quot;&gt;binary: &lt;/b&gt;&lt;span style=&quot;border-color: var(--border-color); background-color: initial;&quot;&gt;0x00 0x00 0x00 0x00 0x00 0x00 0x00 0x01&lt;/span&gt;&lt;/div&gt;&lt;div style=&quot;border-color: var(--border-color); text-align: justify; line-height: 18px;&quot;&gt;&lt;b style=&quot;background-color: initial; border-color: var(--border-color);&quot;&gt;value:&amp;nbsp;&lt;/b&gt;1&lt;/div&gt;" style="rounded=0;whiteSpace=wrap;html=1;fillColor=#d5e8d4;strokeColor=#82b366;" vertex="1" parent="1">
          <mxGeometry x="130" y="230" width="290" height="90" as="geometry" />
        </mxCell>
        <mxCell id="L_XBA1jwa-UQU-hqbk6I-48" value="&lt;div style=&quot;text-align: justify; line-height: 150%;&quot;&gt;&lt;span style=&quot;background-color: initial;&quot;&gt;header&lt;/span&gt;&lt;/div&gt;&lt;div style=&quot;text-align: justify; line-height: 150%;&quot;&gt;&lt;span style=&quot;background-color: initial;&quot;&gt;pos: &lt;span style=&quot;font-weight: 400;&quot;&gt;24&lt;/span&gt;&lt;/span&gt;&lt;br&gt;&lt;/div&gt;&lt;div style=&quot;text-align: justify; line-height: 150%;&quot;&gt;&lt;span style=&quot;background-color: initial;&quot;&gt;binary:&amp;nbsp;&lt;/span&gt;&lt;span style=&quot;background-color: initial; font-weight: 400;&quot;&gt;0xb4&lt;/span&gt;&lt;/div&gt;&lt;div style=&quot;text-align: justify; line-height: 150%;&quot;&gt;&lt;span style=&quot;background-color: initial;&quot;&gt;value: &lt;span style=&quot;font-weight: 400;&quot;&gt;180&lt;/span&gt;&lt;/span&gt;&lt;/div&gt;" style="rounded=0;whiteSpace=wrap;html=1;fillColor=#f8cecc;strokeColor=#b85450;align=center;fontStyle=1" vertex="1" parent="1">
          <mxGeometry x="150" y="330" width="110" height="80" as="geometry" />
        </mxCell>
        <mxCell id="L_XBA1jwa-UQU-hqbk6I-49" value="&lt;div style=&quot;text-align: justify; line-height: 150%;&quot;&gt;&lt;span style=&quot;background-color: initial;&quot;&gt;etime&lt;/span&gt;&lt;/div&gt;&lt;div style=&quot;text-align: justify; line-height: 150%;&quot;&gt;&lt;span style=&quot;background-color: initial;&quot;&gt;pos: &lt;span style=&quot;font-weight: 400;&quot;&gt;25&lt;/span&gt;&lt;/span&gt;&lt;/div&gt;&lt;div style=&quot;text-align: justify; line-height: 150%;&quot;&gt;&lt;span style=&quot;background-color: initial;&quot;&gt;binary:&amp;nbsp;&lt;/span&gt;&lt;span style=&quot;background-color: initial; font-weight: 400;&quot;&gt;0x22&lt;/span&gt;&lt;/div&gt;&lt;div style=&quot;text-align: justify; line-height: 150%;&quot;&gt;&lt;span style=&quot;background-color: initial;&quot;&gt;value: &lt;span style=&quot;font-weight: 400;&quot;&gt;34&lt;/span&gt;&lt;/span&gt;&lt;/div&gt;" style="rounded=0;whiteSpace=wrap;html=1;fillColor=#f8cecc;strokeColor=#b85450;align=center;fontStyle=1" vertex="1" parent="1">
          <mxGeometry x="260" y="330" width="110" height="80" as="geometry" />
        </mxCell>
        <mxCell id="L_XBA1jwa-UQU-hqbk6I-50" value="&lt;div style=&quot;text-align: justify; line-height: 150%;&quot;&gt;&lt;span style=&quot;background-color: initial;&quot;&gt;tag id&lt;/span&gt;&lt;/div&gt;&lt;div style=&quot;text-align: justify; line-height: 150%;&quot;&gt;&lt;span style=&quot;background-color: initial;&quot;&gt;pos: &lt;span style=&quot;font-weight: 400;&quot;&gt;26&lt;/span&gt;&lt;/span&gt;&lt;/div&gt;&lt;div style=&quot;text-align: justify; line-height: 150%;&quot;&gt;&lt;span style=&quot;background-color: initial;&quot;&gt;binary:&amp;nbsp;&lt;/span&gt;&lt;span style=&quot;background-color: initial; font-weight: 400;&quot;&gt;0x09&lt;/span&gt;&lt;/div&gt;&lt;div style=&quot;text-align: justify; line-height: 150%;&quot;&gt;&lt;span style=&quot;background-color: initial;&quot;&gt;value: &lt;span style=&quot;font-weight: 400;&quot;&gt;9&lt;/span&gt;&lt;/span&gt;&lt;/div&gt;" style="rounded=0;whiteSpace=wrap;html=1;fillColor=#f8cecc;strokeColor=#b85450;align=center;fontStyle=1" vertex="1" parent="1">
          <mxGeometry x="370" y="330" width="110" height="80" as="geometry" />
        </mxCell>
        <mxCell id="L_XBA1jwa-UQU-hqbk6I-51" value="&lt;div style=&quot;text-align: justify; line-height: 150%;&quot;&gt;&lt;span style=&quot;background-color: initial;&quot;&gt;header&lt;/span&gt;&lt;/div&gt;&lt;div style=&quot;text-align: justify; line-height: 150%;&quot;&gt;&lt;span style=&quot;background-color: initial;&quot;&gt;pos: &lt;/span&gt;&lt;span style=&quot;background-color: initial; font-weight: 400;&quot;&gt;27&lt;/span&gt;&lt;br&gt;&lt;/div&gt;&lt;div style=&quot;text-align: justify; line-height: 150%;&quot;&gt;&lt;span style=&quot;background-color: initial;&quot;&gt;binary:&amp;nbsp;&lt;/span&gt;&lt;span style=&quot;background-color: initial; font-weight: 400;&quot;&gt;0xb4&lt;/span&gt;&lt;/div&gt;&lt;div style=&quot;text-align: justify; line-height: 150%;&quot;&gt;&lt;span style=&quot;background-color: initial;&quot;&gt;value: &lt;span style=&quot;font-weight: 400;&quot;&gt;180&lt;/span&gt;&lt;/span&gt;&lt;/div&gt;" style="rounded=0;whiteSpace=wrap;html=1;fillColor=#f8cecc;strokeColor=#b85450;align=center;fontStyle=1" vertex="1" parent="1">
          <mxGeometry x="150" y="414" width="110" height="80" as="geometry" />
        </mxCell>
        <mxCell id="L_XBA1jwa-UQU-hqbk6I-52" value="&lt;div style=&quot;text-align: justify; line-height: 150%;&quot;&gt;&lt;span style=&quot;background-color: initial;&quot;&gt;etime&lt;/span&gt;&lt;/div&gt;&lt;div style=&quot;text-align: justify; line-height: 150%;&quot;&gt;&lt;span style=&quot;background-color: initial;&quot;&gt;pos: &lt;span style=&quot;font-weight: 400;&quot;&gt;28&lt;/span&gt;&lt;/span&gt;&lt;/div&gt;&lt;div style=&quot;text-align: justify; line-height: 150%;&quot;&gt;&lt;span style=&quot;background-color: initial;&quot;&gt;binary:&amp;nbsp;&lt;/span&gt;&lt;span style=&quot;background-color: initial; font-weight: 400;&quot;&gt;0x02&lt;/span&gt;&lt;/div&gt;&lt;div style=&quot;text-align: justify; line-height: 150%;&quot;&gt;&lt;span style=&quot;background-color: initial;&quot;&gt;value: &lt;span style=&quot;font-weight: 400;&quot;&gt;2&lt;/span&gt;&lt;/span&gt;&lt;/div&gt;" style="rounded=0;whiteSpace=wrap;html=1;fillColor=#f8cecc;strokeColor=#b85450;align=center;fontStyle=1" vertex="1" parent="1">
          <mxGeometry x="260" y="414" width="110" height="80" as="geometry" />
        </mxCell>
        <mxCell id="L_XBA1jwa-UQU-hqbk6I-53" value="&lt;div style=&quot;text-align: justify; line-height: 150%;&quot;&gt;&lt;span style=&quot;background-color: initial;&quot;&gt;tag id&lt;/span&gt;&lt;/div&gt;&lt;div style=&quot;text-align: justify; line-height: 150%;&quot;&gt;&lt;span style=&quot;background-color: initial;&quot;&gt;pos: &lt;span style=&quot;font-weight: 400;&quot;&gt;29&lt;/span&gt;&lt;/span&gt;&lt;/div&gt;&lt;div style=&quot;text-align: justify; line-height: 150%;&quot;&gt;&lt;span style=&quot;background-color: initial;&quot;&gt;binary:&amp;nbsp;&lt;/span&gt;&lt;span style=&quot;background-color: initial; font-weight: 400;&quot;&gt;0x23&lt;/span&gt;&lt;/div&gt;&lt;div style=&quot;text-align: justify; line-height: 150%;&quot;&gt;&lt;span style=&quot;background-color: initial;&quot;&gt;value: &lt;span style=&quot;font-weight: 400;&quot;&gt;35&lt;/span&gt;&lt;/span&gt;&lt;/div&gt;" style="rounded=0;whiteSpace=wrap;html=1;fillColor=#f8cecc;strokeColor=#b85450;align=center;fontStyle=1" vertex="1" parent="1">
          <mxGeometry x="370" y="414" width="110" height="80" as="geometry" />
        </mxCell>
        <mxCell id="L_XBA1jwa-UQU-hqbk6I-54" value="&lt;div style=&quot;text-align: justify; line-height: 150%;&quot;&gt;&lt;span style=&quot;background-color: initial;&quot;&gt;header&lt;/span&gt;&lt;/div&gt;&lt;div style=&quot;text-align: justify; line-height: 150%;&quot;&gt;&lt;span style=&quot;background-color: initial;&quot;&gt;pos: &lt;span style=&quot;font-weight: 400;&quot;&gt;30&lt;/span&gt;&lt;/span&gt;&lt;br&gt;&lt;/div&gt;&lt;div style=&quot;text-align: justify; line-height: 150%;&quot;&gt;&lt;span style=&quot;background-color: initial;&quot;&gt;binary:&amp;nbsp;&lt;/span&gt;&lt;span style=&quot;background-color: initial; font-weight: 400;&quot;&gt;0x00&lt;/span&gt;&lt;/div&gt;&lt;div style=&quot;text-align: justify; line-height: 150%;&quot;&gt;&lt;span style=&quot;background-color: initial;&quot;&gt;value: &lt;span style=&quot;font-weight: 400;&quot;&gt;0&lt;/span&gt;&lt;/span&gt;&lt;/div&gt;" style="rounded=0;whiteSpace=wrap;html=1;fillColor=#f8cecc;strokeColor=#b85450;align=center;fontStyle=1" vertex="1" parent="1">
          <mxGeometry x="150" y="498" width="110" height="80" as="geometry" />
        </mxCell>
        <mxCell id="L_XBA1jwa-UQU-hqbk6I-55" value="&lt;div style=&quot;text-align: justify; line-height: 150%;&quot;&gt;&lt;span style=&quot;background-color: initial;&quot;&gt;etime&lt;/span&gt;&lt;/div&gt;&lt;div style=&quot;text-align: justify; line-height: 150%;&quot;&gt;&lt;span style=&quot;background-color: initial;&quot;&gt;pos: &lt;span style=&quot;font-weight: 400;&quot;&gt;-&lt;/span&gt;&lt;/span&gt;&lt;/div&gt;&lt;div style=&quot;text-align: justify; line-height: 150%;&quot;&gt;&lt;span style=&quot;background-color: initial;&quot;&gt;binary: &lt;span style=&quot;font-weight: 400;&quot;&gt;-&lt;/span&gt;&lt;/span&gt;&lt;/div&gt;&lt;div style=&quot;text-align: justify; line-height: 150%;&quot;&gt;&lt;span style=&quot;background-color: initial;&quot;&gt;value: &lt;span style=&quot;font-weight: 400;&quot;&gt;-&lt;/span&gt;&lt;/span&gt;&lt;/div&gt;" style="rounded=0;whiteSpace=wrap;html=1;fillColor=#f8cecc;strokeColor=#b85450;align=center;fontStyle=1" vertex="1" parent="1">
          <mxGeometry x="260" y="498" width="110" height="80" as="geometry" />
        </mxCell>
        <mxCell id="L_XBA1jwa-UQU-hqbk6I-56" value="&lt;div style=&quot;text-align: justify; line-height: 150%;&quot;&gt;&lt;span style=&quot;background-color: initial;&quot;&gt;tag id&lt;/span&gt;&lt;/div&gt;&lt;div style=&quot;text-align: justify; line-height: 150%;&quot;&gt;&lt;span style=&quot;background-color: initial;&quot;&gt;pos: &lt;span style=&quot;font-weight: 400;&quot;&gt;31&lt;/span&gt;&lt;/span&gt;&lt;/div&gt;&lt;div style=&quot;text-align: justify; line-height: 150%;&quot;&gt;&lt;span style=&quot;background-color: initial;&quot;&gt;binary:&amp;nbsp;&lt;/span&gt;&lt;span style=&quot;background-color: initial; font-weight: 400;&quot;&gt;0x21&lt;/span&gt;&lt;/div&gt;&lt;div style=&quot;text-align: justify; line-height: 150%;&quot;&gt;&lt;span style=&quot;background-color: initial;&quot;&gt;value: &lt;span style=&quot;font-weight: 400;&quot;&gt;33&lt;/span&gt;&lt;/span&gt;&lt;/div&gt;" style="rounded=0;whiteSpace=wrap;html=1;fillColor=#f8cecc;strokeColor=#b85450;align=center;fontStyle=1" vertex="1" parent="1">
          <mxGeometry x="370" y="498" width="110" height="80" as="geometry" />
        </mxCell>
        <mxCell id="L_XBA1jwa-UQU-hqbk6I-57" value="&lt;div style=&quot;text-align: justify; line-height: 150%;&quot;&gt;&lt;span style=&quot;background-color: initial;&quot;&gt;header&lt;/span&gt;&lt;/div&gt;&lt;div style=&quot;text-align: justify; line-height: 150%;&quot;&gt;&lt;span style=&quot;background-color: initial;&quot;&gt;pos: &lt;span style=&quot;font-weight: 400;&quot;&gt;32&lt;/span&gt;&lt;/span&gt;&lt;br&gt;&lt;/div&gt;&lt;div style=&quot;text-align: justify; line-height: 150%;&quot;&gt;&lt;span style=&quot;background-color: initial;&quot;&gt;binary:&amp;nbsp;&lt;/span&gt;&lt;span style=&quot;background-color: initial; font-weight: 400;&quot;&gt;0x0d&lt;/span&gt;&lt;/div&gt;&lt;div style=&quot;text-align: justify; line-height: 150%;&quot;&gt;&lt;span style=&quot;background-color: initial;&quot;&gt;value: &lt;span style=&quot;font-weight: 400;&quot;&gt;13&lt;/span&gt;&lt;/span&gt;&lt;/div&gt;" style="rounded=0;whiteSpace=wrap;html=1;fillColor=#f8cecc;strokeColor=#b85450;align=center;fontStyle=1" vertex="1" parent="1">
          <mxGeometry x="150" y="582" width="110" height="80" as="geometry" />
        </mxCell>
        <mxCell id="L_XBA1jwa-UQU-hqbk6I-58" value="&lt;div style=&quot;text-align: justify; line-height: 150%;&quot;&gt;&lt;span style=&quot;background-color: initial;&quot;&gt;etime&lt;/span&gt;&lt;/div&gt;&lt;div style=&quot;text-align: justify; line-height: 150%;&quot;&gt;&lt;span style=&quot;background-color: initial;&quot;&gt;pos: &lt;span style=&quot;font-weight: 400;&quot;&gt;-&lt;/span&gt;&lt;/span&gt;&lt;/div&gt;&lt;div style=&quot;text-align: justify; line-height: 150%;&quot;&gt;&lt;span style=&quot;background-color: initial;&quot;&gt;binary: &lt;span style=&quot;font-weight: 400;&quot;&gt;-&lt;/span&gt;&lt;/span&gt;&lt;/div&gt;&lt;div style=&quot;text-align: justify; line-height: 150%;&quot;&gt;&lt;span style=&quot;background-color: initial;&quot;&gt;value: &lt;span style=&quot;font-weight: 400;&quot;&gt;-&lt;/span&gt;&lt;/span&gt;&lt;/div&gt;" style="rounded=0;whiteSpace=wrap;html=1;fillColor=#f8cecc;strokeColor=#b85450;align=center;fontStyle=1" vertex="1" parent="1">
          <mxGeometry x="260" y="582" width="110" height="80" as="geometry" />
        </mxCell>
        <mxCell id="L_XBA1jwa-UQU-hqbk6I-59" value="&lt;div style=&quot;text-align: justify; line-height: 150%;&quot;&gt;&lt;span style=&quot;background-color: initial;&quot;&gt;tag id&lt;/span&gt;&lt;/div&gt;&lt;div style=&quot;text-align: justify; line-height: 150%;&quot;&gt;&lt;span style=&quot;background-color: initial;&quot;&gt;pos: &lt;span style=&quot;font-weight: 400;&quot;&gt;-&lt;/span&gt;&lt;/span&gt;&lt;/div&gt;&lt;div style=&quot;text-align: justify; line-height: 150%;&quot;&gt;&lt;span style=&quot;background-color: initial;&quot;&gt;binary: &lt;span style=&quot;font-weight: 400;&quot;&gt;-&lt;/span&gt;&lt;/span&gt;&lt;/div&gt;&lt;div style=&quot;text-align: justify; line-height: 150%;&quot;&gt;&lt;span style=&quot;background-color: initial;&quot;&gt;value: &lt;span style=&quot;font-weight: 400;&quot;&gt;-&lt;/span&gt;&lt;/span&gt;&lt;/div&gt;" style="rounded=0;whiteSpace=wrap;html=1;fillColor=#f8cecc;strokeColor=#b85450;align=center;fontStyle=1" vertex="1" parent="1">
          <mxGeometry x="370" y="582" width="110" height="80" as="geometry" />
        </mxCell>
        <mxCell id="L_XBA1jwa-UQU-hqbk6I-60" value="&lt;div style=&quot;text-align: justify; line-height: 150%;&quot;&gt;&lt;span style=&quot;background-color: initial;&quot;&gt;header&lt;/span&gt;&lt;/div&gt;&lt;div style=&quot;text-align: justify; line-height: 150%;&quot;&gt;&lt;span style=&quot;background-color: initial;&quot;&gt;pos: &lt;span style=&quot;font-weight: 400;&quot;&gt;33&lt;/span&gt;&lt;/span&gt;&lt;br&gt;&lt;/div&gt;&lt;div style=&quot;text-align: justify; line-height: 150%;&quot;&gt;&lt;span style=&quot;background-color: initial;&quot;&gt;binary:&amp;nbsp;&lt;/span&gt;&lt;span style=&quot;background-color: initial; font-weight: 400;&quot;&gt;0x01&lt;/span&gt;&lt;/div&gt;&lt;div style=&quot;text-align: justify; line-height: 150%;&quot;&gt;&lt;span style=&quot;background-color: initial;&quot;&gt;value: &lt;span style=&quot;font-weight: 400;&quot;&gt;1&lt;/span&gt;&lt;/span&gt;&lt;/div&gt;" style="rounded=0;whiteSpace=wrap;html=1;fillColor=#f8cecc;strokeColor=#b85450;align=center;fontStyle=1" vertex="1" parent="1">
          <mxGeometry x="150" y="666" width="110" height="80" as="geometry" />
        </mxCell>
        <mxCell id="L_XBA1jwa-UQU-hqbk6I-61" value="&lt;div style=&quot;text-align: justify; line-height: 150%;&quot;&gt;&lt;span style=&quot;background-color: initial;&quot;&gt;etime&lt;/span&gt;&lt;/div&gt;&lt;div style=&quot;text-align: justify; line-height: 150%;&quot;&gt;&lt;span style=&quot;background-color: initial;&quot;&gt;pos: &lt;span style=&quot;font-weight: 400;&quot;&gt;-&lt;/span&gt;&lt;/span&gt;&lt;/div&gt;&lt;div style=&quot;text-align: justify; line-height: 150%;&quot;&gt;&lt;span style=&quot;background-color: initial;&quot;&gt;binary: &lt;span style=&quot;font-weight: 400;&quot;&gt;-&lt;/span&gt;&lt;/span&gt;&lt;/div&gt;&lt;div style=&quot;text-align: justify; line-height: 150%;&quot;&gt;&lt;span style=&quot;background-color: initial;&quot;&gt;value: &lt;span style=&quot;font-weight: 400;&quot;&gt;-&lt;/span&gt;&lt;/span&gt;&lt;/div&gt;" style="rounded=0;whiteSpace=wrap;html=1;fillColor=#f8cecc;strokeColor=#b85450;align=center;fontStyle=1" vertex="1" parent="1">
          <mxGeometry x="260" y="666" width="110" height="80" as="geometry" />
        </mxCell>
        <mxCell id="L_XBA1jwa-UQU-hqbk6I-62" value="&lt;div style=&quot;text-align: justify; line-height: 150%;&quot;&gt;&lt;span style=&quot;background-color: initial;&quot;&gt;tag id&lt;/span&gt;&lt;/div&gt;&lt;div style=&quot;text-align: justify; line-height: 150%;&quot;&gt;&lt;span style=&quot;background-color: initial;&quot;&gt;pos: &lt;span style=&quot;font-weight: 400;&quot;&gt;-&lt;/span&gt;&lt;/span&gt;&lt;/div&gt;&lt;div style=&quot;text-align: justify; line-height: 150%;&quot;&gt;&lt;span style=&quot;background-color: initial;&quot;&gt;binary: &lt;span style=&quot;font-weight: 400;&quot;&gt;-&lt;/span&gt;&lt;/span&gt;&lt;/div&gt;&lt;div style=&quot;text-align: justify; line-height: 150%;&quot;&gt;&lt;span style=&quot;background-color: initial;&quot;&gt;value: &lt;span style=&quot;font-weight: 400;&quot;&gt;-&lt;/span&gt;&lt;/span&gt;&lt;/div&gt;" style="rounded=0;whiteSpace=wrap;html=1;fillColor=#f8cecc;strokeColor=#b85450;align=center;fontStyle=1" vertex="1" parent="1">
          <mxGeometry x="370" y="666" width="110" height="80" as="geometry" />
        </mxCell>
        <mxCell id="L_XBA1jwa-UQU-hqbk6I-63" value="&lt;div style=&quot;text-align: justify; line-height: 150%;&quot;&gt;&lt;span style=&quot;background-color: initial;&quot;&gt;header&lt;/span&gt;&lt;/div&gt;&lt;div style=&quot;text-align: justify; line-height: 150%;&quot;&gt;&lt;span style=&quot;background-color: initial;&quot;&gt;pos: &lt;span style=&quot;font-weight: 400;&quot;&gt;34&lt;/span&gt;&lt;/span&gt;&lt;br&gt;&lt;/div&gt;&lt;div style=&quot;text-align: justify; line-height: 150%;&quot;&gt;&lt;span style=&quot;background-color: initial;&quot;&gt;binary:&amp;nbsp;&lt;/span&gt;&lt;span style=&quot;background-color: initial; font-weight: 400;&quot;&gt;0x88&lt;/span&gt;&lt;/div&gt;&lt;div style=&quot;text-align: justify; line-height: 150%;&quot;&gt;&lt;span style=&quot;background-color: initial;&quot;&gt;value: &lt;span style=&quot;font-weight: 400;&quot;&gt;136&lt;/span&gt;&lt;/span&gt;&lt;/div&gt;" style="rounded=0;whiteSpace=wrap;html=1;fillColor=#f8cecc;strokeColor=#b85450;align=center;fontStyle=1" vertex="1" parent="1">
          <mxGeometry x="150" y="750" width="110" height="80" as="geometry" />
        </mxCell>
        <mxCell id="L_XBA1jwa-UQU-hqbk6I-64" value="&lt;div style=&quot;text-align: justify; line-height: 150%;&quot;&gt;&lt;span style=&quot;background-color: initial;&quot;&gt;etime&lt;/span&gt;&lt;/div&gt;&lt;div style=&quot;text-align: justify; line-height: 150%;&quot;&gt;&lt;span style=&quot;background-color: initial;&quot;&gt;pos: &lt;span style=&quot;font-weight: 400;&quot;&gt;35&lt;/span&gt;&lt;/span&gt;&lt;/div&gt;&lt;div style=&quot;text-align: justify; line-height: 150%;&quot;&gt;&lt;span style=&quot;background-color: initial;&quot;&gt;binary: &lt;span style=&quot;font-weight: 400;&quot;&gt;0x03&lt;/span&gt;&lt;/span&gt;&lt;/div&gt;&lt;div style=&quot;text-align: justify; line-height: 150%;&quot;&gt;&lt;span style=&quot;background-color: initial;&quot;&gt;value: &lt;span style=&quot;font-weight: 400;&quot;&gt;3&lt;/span&gt;&lt;/span&gt;&lt;/div&gt;" style="rounded=0;whiteSpace=wrap;html=1;fillColor=#f8cecc;strokeColor=#b85450;align=center;fontStyle=1" vertex="1" parent="1">
          <mxGeometry x="260" y="750" width="110" height="80" as="geometry" />
        </mxCell>
        <mxCell id="L_XBA1jwa-UQU-hqbk6I-65" value="&lt;div style=&quot;text-align: justify; line-height: 150%;&quot;&gt;&lt;span style=&quot;background-color: initial;&quot;&gt;tag id&lt;/span&gt;&lt;/div&gt;&lt;div style=&quot;text-align: justify; line-height: 150%;&quot;&gt;&lt;span style=&quot;background-color: initial;&quot;&gt;pos: &lt;span style=&quot;font-weight: 400;&quot;&gt;36&lt;/span&gt;&lt;/span&gt;&lt;/div&gt;&lt;div style=&quot;text-align: justify; line-height: 150%;&quot;&gt;&lt;span style=&quot;background-color: initial;&quot;&gt;binary: &lt;span style=&quot;font-weight: 400;&quot;&gt;94&lt;/span&gt;&lt;/span&gt;&lt;/div&gt;&lt;div style=&quot;text-align: justify; line-height: 150%;&quot;&gt;&lt;span style=&quot;background-color: initial;&quot;&gt;value: &lt;span style=&quot;font-weight: 400;&quot;&gt;148&lt;/span&gt;&lt;/span&gt;&lt;/div&gt;" style="rounded=0;whiteSpace=wrap;html=1;fillColor=#f8cecc;strokeColor=#b85450;align=center;fontStyle=1" vertex="1" parent="1">
          <mxGeometry x="370" y="750" width="110" height="80" as="geometry" />
        </mxCell>
        <mxCell id="L_XBA1jwa-UQU-hqbk6I-66" value="&lt;div style=&quot;text-align: justify; line-height: 150%;&quot;&gt;&lt;span style=&quot;background-color: initial;&quot;&gt;header&lt;/span&gt;&lt;/div&gt;&lt;div style=&quot;text-align: justify; line-height: 150%;&quot;&gt;&lt;span style=&quot;background-color: initial;&quot;&gt;pos: &lt;span style=&quot;font-weight: 400;&quot;&gt;37&lt;/span&gt;&lt;/span&gt;&lt;br&gt;&lt;/div&gt;&lt;div style=&quot;text-align: justify; line-height: 150%;&quot;&gt;&lt;span style=&quot;background-color: initial;&quot;&gt;binary:&amp;nbsp;&lt;/span&gt;&lt;span style=&quot;background-color: initial; font-weight: 400;&quot;&gt;0x01&lt;/span&gt;&lt;/div&gt;&lt;div style=&quot;text-align: justify; line-height: 150%;&quot;&gt;&lt;span style=&quot;background-color: initial;&quot;&gt;value: &lt;span style=&quot;font-weight: 400;&quot;&gt;1&lt;/span&gt;&lt;/span&gt;&lt;/div&gt;" style="rounded=0;whiteSpace=wrap;html=1;fillColor=#f8cecc;strokeColor=#b85450;align=center;fontStyle=1" vertex="1" parent="1">
          <mxGeometry x="150" y="834" width="110" height="80" as="geometry" />
        </mxCell>
        <mxCell id="L_XBA1jwa-UQU-hqbk6I-67" value="&lt;div style=&quot;text-align: justify; line-height: 150%;&quot;&gt;&lt;span style=&quot;background-color: initial;&quot;&gt;etime&lt;/span&gt;&lt;/div&gt;&lt;div style=&quot;text-align: justify; line-height: 150%;&quot;&gt;&lt;span style=&quot;background-color: initial;&quot;&gt;pos: &lt;span style=&quot;font-weight: 400;&quot;&gt;-&lt;/span&gt;&lt;/span&gt;&lt;/div&gt;&lt;div style=&quot;text-align: justify; line-height: 150%;&quot;&gt;&lt;span style=&quot;background-color: initial;&quot;&gt;binary: &lt;span style=&quot;font-weight: 400;&quot;&gt;-&lt;/span&gt;&lt;/span&gt;&lt;/div&gt;&lt;div style=&quot;text-align: justify; line-height: 150%;&quot;&gt;&lt;span style=&quot;background-color: initial;&quot;&gt;value: &lt;span style=&quot;font-weight: 400;&quot;&gt;-&lt;/span&gt;&lt;/span&gt;&lt;/div&gt;" style="rounded=0;whiteSpace=wrap;html=1;fillColor=#f8cecc;strokeColor=#b85450;align=center;fontStyle=1" vertex="1" parent="1">
          <mxGeometry x="260" y="834" width="110" height="80" as="geometry" />
        </mxCell>
        <mxCell id="L_XBA1jwa-UQU-hqbk6I-68" value="&lt;div style=&quot;text-align: justify; line-height: 150%;&quot;&gt;&lt;span style=&quot;background-color: initial;&quot;&gt;tag id&lt;/span&gt;&lt;/div&gt;&lt;div style=&quot;text-align: justify; line-height: 150%;&quot;&gt;&lt;span style=&quot;background-color: initial;&quot;&gt;pos: &lt;span style=&quot;font-weight: 400;&quot;&gt;-&lt;/span&gt;&lt;/span&gt;&lt;/div&gt;&lt;div style=&quot;text-align: justify; line-height: 150%;&quot;&gt;&lt;span style=&quot;background-color: initial;&quot;&gt;binary: &lt;span style=&quot;font-weight: 400;&quot;&gt;-&lt;/span&gt;&lt;/span&gt;&lt;/div&gt;&lt;div style=&quot;text-align: justify; line-height: 150%;&quot;&gt;&lt;span style=&quot;background-color: initial;&quot;&gt;value: &lt;span style=&quot;font-weight: 400;&quot;&gt;-&lt;/span&gt;&lt;/span&gt;&lt;/div&gt;" style="rounded=0;whiteSpace=wrap;html=1;fillColor=#f8cecc;strokeColor=#b85450;align=center;fontStyle=1" vertex="1" parent="1">
          <mxGeometry x="370" y="834" width="110" height="80" as="geometry" />
        </mxCell>
        <mxCell id="L_XBA1jwa-UQU-hqbk6I-69" value="&lt;div style=&quot;text-align: justify; line-height: 150%;&quot;&gt;&lt;span style=&quot;background-color: initial;&quot;&gt;header&lt;/span&gt;&lt;/div&gt;&lt;div style=&quot;text-align: justify; line-height: 150%;&quot;&gt;&lt;span style=&quot;background-color: initial;&quot;&gt;pos: &lt;span style=&quot;font-weight: 400;&quot;&gt;39&lt;/span&gt;&lt;/span&gt;&lt;br&gt;&lt;/div&gt;&lt;div style=&quot;text-align: justify; line-height: 150%;&quot;&gt;&lt;span style=&quot;background-color: initial;&quot;&gt;binary:&amp;nbsp;&lt;/span&gt;&lt;span style=&quot;background-color: initial; font-weight: 400;&quot;&gt;0x82&lt;/span&gt;&lt;/div&gt;&lt;div style=&quot;text-align: justify; line-height: 150%;&quot;&gt;&lt;span style=&quot;background-color: initial;&quot;&gt;value: &lt;span style=&quot;font-weight: 400;&quot;&gt;130&lt;/span&gt;&lt;/span&gt;&lt;/div&gt;" style="rounded=0;whiteSpace=wrap;html=1;fillColor=#f8cecc;strokeColor=#b85450;align=center;fontStyle=1" vertex="1" parent="1">
          <mxGeometry x="150" y="1002" width="110" height="80" as="geometry" />
        </mxCell>
        <mxCell id="L_XBA1jwa-UQU-hqbk6I-70" value="&lt;div style=&quot;text-align: justify; line-height: 150%;&quot;&gt;&lt;span style=&quot;background-color: initial;&quot;&gt;etime&lt;/span&gt;&lt;/div&gt;&lt;div style=&quot;text-align: justify; line-height: 150%;&quot;&gt;&lt;span style=&quot;background-color: initial;&quot;&gt;pos: &lt;span style=&quot;font-weight: 400;&quot;&gt;40&lt;/span&gt;&lt;/span&gt;&lt;/div&gt;&lt;div style=&quot;text-align: justify; line-height: 150%;&quot;&gt;&lt;span style=&quot;background-color: initial;&quot;&gt;binary: &lt;span style=&quot;font-weight: 400;&quot;&gt;0x07&lt;/span&gt;&lt;/span&gt;&lt;/div&gt;&lt;div style=&quot;text-align: justify; line-height: 150%;&quot;&gt;&lt;span style=&quot;background-color: initial;&quot;&gt;value: &lt;span style=&quot;font-weight: 400;&quot;&gt;7&lt;/span&gt;&lt;/span&gt;&lt;/div&gt;" style="rounded=0;whiteSpace=wrap;html=1;fillColor=#f8cecc;strokeColor=#b85450;align=center;fontStyle=1" vertex="1" parent="1">
          <mxGeometry x="260" y="1002" width="110" height="80" as="geometry" />
        </mxCell>
        <mxCell id="L_XBA1jwa-UQU-hqbk6I-71" value="&lt;div style=&quot;text-align: justify; line-height: 150%;&quot;&gt;&lt;span style=&quot;background-color: initial;&quot;&gt;tag id&lt;/span&gt;&lt;/div&gt;&lt;div style=&quot;text-align: justify; line-height: 150%;&quot;&gt;&lt;span style=&quot;background-color: initial;&quot;&gt;pos: &lt;span style=&quot;font-weight: 400;&quot;&gt;41&lt;/span&gt;&lt;/span&gt;&lt;/div&gt;&lt;div style=&quot;text-align: justify; line-height: 150%;&quot;&gt;&lt;span style=&quot;background-color: initial;&quot;&gt;binary: &lt;span style=&quot;font-weight: 400;&quot;&gt;0x00&lt;/span&gt;&lt;/span&gt;&lt;/div&gt;&lt;div style=&quot;text-align: justify; line-height: 150%;&quot;&gt;&lt;span style=&quot;background-color: initial;&quot;&gt;value: &lt;span style=&quot;font-weight: 400;&quot;&gt;0&lt;/span&gt;&lt;/span&gt;&lt;/div&gt;" style="rounded=0;whiteSpace=wrap;html=1;fillColor=#f8cecc;strokeColor=#b85450;align=center;fontStyle=1" vertex="1" parent="1">
          <mxGeometry x="370" y="1002" width="110" height="80" as="geometry" />
        </mxCell>
        <mxCell id="L_XBA1jwa-UQU-hqbk6I-72" value="&lt;div style=&quot;text-align: justify; line-height: 150%;&quot;&gt;&lt;span style=&quot;background-color: initial;&quot;&gt;header&lt;/span&gt;&lt;/div&gt;&lt;div style=&quot;text-align: justify; line-height: 150%;&quot;&gt;&lt;span style=&quot;background-color: initial;&quot;&gt;pos: &lt;span style=&quot;font-weight: 400;&quot;&gt;38&lt;/span&gt;&lt;/span&gt;&lt;br&gt;&lt;/div&gt;&lt;div style=&quot;text-align: justify; line-height: 150%;&quot;&gt;&lt;span style=&quot;background-color: initial;&quot;&gt;binary:&amp;nbsp;&lt;/span&gt;&lt;span style=&quot;background-color: initial; font-weight: 400;&quot;&gt;0x35&lt;/span&gt;&lt;/div&gt;&lt;div style=&quot;text-align: justify; line-height: 150%;&quot;&gt;&lt;span style=&quot;background-color: initial;&quot;&gt;value: &lt;span style=&quot;font-weight: 400;&quot;&gt;53&lt;/span&gt;&lt;/span&gt;&lt;/div&gt;" style="rounded=0;whiteSpace=wrap;html=1;fillColor=#f8cecc;strokeColor=#b85450;align=center;fontStyle=1" vertex="1" parent="1">
          <mxGeometry x="150" y="918" width="110" height="80" as="geometry" />
        </mxCell>
        <mxCell id="L_XBA1jwa-UQU-hqbk6I-73" value="&lt;div style=&quot;text-align: justify; line-height: 150%;&quot;&gt;&lt;span style=&quot;background-color: initial;&quot;&gt;etime&lt;/span&gt;&lt;/div&gt;&lt;div style=&quot;text-align: justify; line-height: 150%;&quot;&gt;&lt;span style=&quot;background-color: initial;&quot;&gt;pos: &lt;span style=&quot;font-weight: 400;&quot;&gt;-&lt;/span&gt;&lt;/span&gt;&lt;/div&gt;&lt;div style=&quot;text-align: justify; line-height: 150%;&quot;&gt;&lt;span style=&quot;background-color: initial;&quot;&gt;binary: &lt;span style=&quot;font-weight: 400;&quot;&gt;-&lt;/span&gt;&lt;/span&gt;&lt;/div&gt;&lt;div style=&quot;text-align: justify; line-height: 150%;&quot;&gt;&lt;span style=&quot;background-color: initial;&quot;&gt;value: &lt;span style=&quot;font-weight: 400;&quot;&gt;-&lt;/span&gt;&lt;/span&gt;&lt;/div&gt;" style="rounded=0;whiteSpace=wrap;html=1;fillColor=#f8cecc;strokeColor=#b85450;align=center;fontStyle=1" vertex="1" parent="1">
          <mxGeometry x="260" y="918" width="110" height="80" as="geometry" />
        </mxCell>
        <mxCell id="L_XBA1jwa-UQU-hqbk6I-74" value="&lt;div style=&quot;text-align: justify; line-height: 150%;&quot;&gt;&lt;span style=&quot;background-color: initial;&quot;&gt;tag id&lt;/span&gt;&lt;/div&gt;&lt;div style=&quot;text-align: justify; line-height: 150%;&quot;&gt;&lt;span style=&quot;background-color: initial;&quot;&gt;pos: &lt;span style=&quot;font-weight: 400;&quot;&gt;-&lt;/span&gt;&lt;/span&gt;&lt;/div&gt;&lt;div style=&quot;text-align: justify; line-height: 150%;&quot;&gt;&lt;span style=&quot;background-color: initial;&quot;&gt;binary: &lt;span style=&quot;font-weight: 400;&quot;&gt;-&lt;/span&gt;&lt;/span&gt;&lt;/div&gt;&lt;div style=&quot;text-align: justify; line-height: 150%;&quot;&gt;&lt;span style=&quot;background-color: initial;&quot;&gt;value: &lt;span style=&quot;font-weight: 400;&quot;&gt;-&lt;/span&gt;&lt;/span&gt;&lt;/div&gt;" style="rounded=0;whiteSpace=wrap;html=1;fillColor=#f8cecc;strokeColor=#b85450;align=center;fontStyle=1" vertex="1" parent="1">
          <mxGeometry x="370" y="918" width="110" height="80" as="geometry" />
        </mxCell>
        <mxCell id="L_XBA1jwa-UQU-hqbk6I-75" value="&lt;div style=&quot;text-align: justify; line-height: 150%;&quot;&gt;&lt;span style=&quot;background-color: initial;&quot;&gt;header&lt;/span&gt;&lt;/div&gt;&lt;div style=&quot;text-align: justify; line-height: 150%;&quot;&gt;&lt;span style=&quot;background-color: initial;&quot;&gt;pos: &lt;span style=&quot;font-weight: 400;&quot;&gt;44&lt;/span&gt;&lt;/span&gt;&lt;br&gt;&lt;/div&gt;&lt;div style=&quot;text-align: justify; line-height: 150%;&quot;&gt;&lt;span style=&quot;background-color: initial;&quot;&gt;binary:&amp;nbsp;&lt;/span&gt;&lt;span style=&quot;background-color: initial; font-weight: 400;&quot;&gt;0x02&lt;/span&gt;&lt;/div&gt;&lt;div style=&quot;text-align: justify; line-height: 150%;&quot;&gt;&lt;span style=&quot;background-color: initial;&quot;&gt;value: &lt;span style=&quot;font-weight: 400;&quot;&gt;2&lt;/span&gt;&lt;/span&gt;&lt;/div&gt;" style="rounded=0;whiteSpace=wrap;html=1;fillColor=#f8cecc;strokeColor=#b85450;align=center;fontStyle=1" vertex="1" parent="1">
          <mxGeometry x="150" y="1086" width="110" height="80" as="geometry" />
        </mxCell>
        <mxCell id="L_XBA1jwa-UQU-hqbk6I-76" value="&lt;div style=&quot;text-align: justify; line-height: 150%;&quot;&gt;&lt;span style=&quot;background-color: initial;&quot;&gt;etime&lt;/span&gt;&lt;/div&gt;&lt;div style=&quot;text-align: justify; line-height: 150%;&quot;&gt;&lt;span style=&quot;background-color: initial;&quot;&gt;pos: &lt;span style=&quot;font-weight: 400;&quot;&gt;-&lt;/span&gt;&lt;/span&gt;&lt;/div&gt;&lt;div style=&quot;text-align: justify; line-height: 150%;&quot;&gt;&lt;span style=&quot;background-color: initial;&quot;&gt;binary: &lt;span style=&quot;font-weight: 400;&quot;&gt;-&lt;/span&gt;&lt;/span&gt;&lt;/div&gt;&lt;div style=&quot;text-align: justify; line-height: 150%;&quot;&gt;&lt;span style=&quot;background-color: initial;&quot;&gt;value: &lt;span style=&quot;font-weight: 400;&quot;&gt;-&lt;/span&gt;&lt;/span&gt;&lt;/div&gt;" style="rounded=0;whiteSpace=wrap;html=1;fillColor=#f8cecc;strokeColor=#b85450;align=center;fontStyle=1" vertex="1" parent="1">
          <mxGeometry x="260" y="1086" width="110" height="80" as="geometry" />
        </mxCell>
        <mxCell id="L_XBA1jwa-UQU-hqbk6I-77" value="&lt;div style=&quot;text-align: justify; line-height: 150%;&quot;&gt;&lt;span style=&quot;background-color: initial;&quot;&gt;tag id&lt;/span&gt;&lt;/div&gt;&lt;div style=&quot;text-align: justify; line-height: 150%;&quot;&gt;&lt;span style=&quot;background-color: initial;&quot;&gt;pos: &lt;span style=&quot;font-weight: 400;&quot;&gt;45&lt;/span&gt;&lt;/span&gt;&lt;/div&gt;&lt;div style=&quot;text-align: justify; line-height: 150%;&quot;&gt;&lt;span style=&quot;background-color: initial;&quot;&gt;binary: &lt;span style=&quot;font-weight: 400;&quot;&gt;0x12&lt;/span&gt;&lt;/span&gt;&lt;/div&gt;&lt;div style=&quot;text-align: justify; line-height: 150%;&quot;&gt;&lt;span style=&quot;background-color: initial;&quot;&gt;value:&lt;span style=&quot;font-weight: 400;&quot;&gt;&amp;nbsp;18&lt;/span&gt;&lt;/span&gt;&lt;/div&gt;" style="rounded=0;whiteSpace=wrap;html=1;fillColor=#f8cecc;strokeColor=#b85450;align=center;fontStyle=1" vertex="1" parent="1">
          <mxGeometry x="370" y="1086" width="110" height="80" as="geometry" />
        </mxCell>
        <mxCell id="L_XBA1jwa-UQU-hqbk6I-78" value="&lt;div style=&quot;text-align: justify; line-height: 150%;&quot;&gt;param type&lt;/div&gt;&lt;div style=&quot;text-align: justify; line-height: 150%;&quot;&gt;&lt;span style=&quot;background-color: initial;&quot;&gt;pos: &lt;span style=&quot;font-weight: 400;&quot;&gt;42&lt;/span&gt;&lt;/span&gt;&lt;/div&gt;&lt;div style=&quot;text-align: justify; line-height: 150%;&quot;&gt;&lt;span style=&quot;background-color: initial;&quot;&gt;binary: &lt;span style=&quot;font-weight: 400;&quot;&gt;0x00&lt;/span&gt;&lt;/span&gt;&lt;/div&gt;&lt;div style=&quot;text-align: justify; line-height: 150%;&quot;&gt;&lt;span style=&quot;background-color: initial;&quot;&gt;value: &lt;span style=&quot;font-weight: 400;&quot;&gt;0&lt;/span&gt;&lt;/span&gt;&lt;/div&gt;" style="rounded=0;whiteSpace=wrap;html=1;fillColor=#f8cecc;strokeColor=#b85450;align=center;fontStyle=1" vertex="1" parent="1">
          <mxGeometry x="480" y="1002" width="110" height="80" as="geometry" />
        </mxCell>
        <mxCell id="L_XBA1jwa-UQU-hqbk6I-79" value="&lt;div style=&quot;text-align: justify; line-height: 150%;&quot;&gt;length of value&lt;/div&gt;&lt;div style=&quot;text-align: justify; line-height: 150%;&quot;&gt;&lt;span style=&quot;background-color: initial;&quot;&gt;pos: &lt;span style=&quot;font-weight: 400;&quot;&gt;43&lt;/span&gt;&lt;/span&gt;&lt;/div&gt;&lt;div style=&quot;text-align: justify; line-height: 150%;&quot;&gt;&lt;span style=&quot;background-color: initial;&quot;&gt;binary: &lt;span style=&quot;font-weight: 400;&quot;&gt;0x00&lt;/span&gt;&lt;/span&gt;&lt;/div&gt;&lt;div style=&quot;text-align: justify; line-height: 150%;&quot;&gt;&lt;span style=&quot;background-color: initial;&quot;&gt;value: &lt;span style=&quot;font-weight: 400;&quot;&gt;0&lt;/span&gt;&lt;/span&gt;&lt;/div&gt;" style="rounded=0;whiteSpace=wrap;html=1;fillColor=#f8cecc;strokeColor=#b85450;align=center;fontStyle=1" vertex="1" parent="1">
          <mxGeometry x="590" y="1002" width="110" height="80" as="geometry" />
        </mxCell>
        <mxCell id="L_XBA1jwa-UQU-hqbk6I-80" value="&lt;div style=&quot;text-align: justify; line-height: 150%;&quot;&gt;value&lt;/div&gt;&lt;div style=&quot;text-align: justify; line-height: 150%;&quot;&gt;&lt;span style=&quot;background-color: initial;&quot;&gt;pos: &lt;span style=&quot;font-weight: 400;&quot;&gt;-&lt;/span&gt;&lt;/span&gt;&lt;/div&gt;&lt;div style=&quot;text-align: justify; line-height: 150%;&quot;&gt;&lt;span style=&quot;background-color: initial;&quot;&gt;binary: &lt;span style=&quot;font-weight: 400;&quot;&gt;-&lt;/span&gt;&lt;/span&gt;&lt;/div&gt;&lt;div style=&quot;text-align: justify; line-height: 150%;&quot;&gt;&lt;span style=&quot;background-color: initial;&quot;&gt;value: &lt;span style=&quot;font-weight: 400;&quot;&gt;-&lt;/span&gt;&lt;/span&gt;&lt;/div&gt;" style="rounded=0;whiteSpace=wrap;html=1;fillColor=#f8cecc;strokeColor=#b85450;align=center;fontStyle=1" vertex="1" parent="1">
          <mxGeometry x="700" y="1002" width="110" height="80" as="geometry" />
        </mxCell>
        <mxCell id="L_XBA1jwa-UQU-hqbk6I-81" value="&lt;div style=&quot;text-align: justify; line-height: 150%;&quot;&gt;param type&lt;/div&gt;&lt;div style=&quot;text-align: justify; line-height: 150%;&quot;&gt;&lt;span style=&quot;background-color: initial;&quot;&gt;pos: &lt;span style=&quot;font-weight: 400;&quot;&gt;46&lt;/span&gt;&lt;/span&gt;&lt;/div&gt;&lt;div style=&quot;text-align: justify; line-height: 150%;&quot;&gt;&lt;span style=&quot;background-color: initial;&quot;&gt;binary: &lt;span style=&quot;font-weight: 400;&quot;&gt;0x00&lt;/span&gt;&lt;/span&gt;&lt;/div&gt;&lt;div style=&quot;text-align: justify; line-height: 150%;&quot;&gt;&lt;span style=&quot;background-color: initial;&quot;&gt;value: &lt;span style=&quot;font-weight: 400;&quot;&gt;0&lt;/span&gt;&lt;/span&gt;&lt;/div&gt;" style="rounded=0;whiteSpace=wrap;html=1;fillColor=#f8cecc;strokeColor=#b85450;align=center;fontStyle=1" vertex="1" parent="1">
          <mxGeometry x="480" y="1086" width="110" height="80" as="geometry" />
        </mxCell>
        <mxCell id="L_XBA1jwa-UQU-hqbk6I-82" value="&lt;div style=&quot;text-align: justify; line-height: 150%;&quot;&gt;length of value&lt;/div&gt;&lt;div style=&quot;text-align: justify; line-height: 150%;&quot;&gt;&lt;span style=&quot;background-color: initial;&quot;&gt;pos: &lt;span style=&quot;font-weight: 400;&quot;&gt;47&lt;/span&gt;&lt;/span&gt;&lt;/div&gt;&lt;div style=&quot;text-align: justify; line-height: 150%;&quot;&gt;&lt;span style=&quot;background-color: initial;&quot;&gt;binary: &lt;span style=&quot;font-weight: 400;&quot;&gt;0x0d&lt;/span&gt;&lt;/span&gt;&lt;/div&gt;&lt;div style=&quot;text-align: justify; line-height: 150%;&quot;&gt;&lt;span style=&quot;background-color: initial;&quot;&gt;value: &lt;span style=&quot;font-weight: 400;&quot;&gt;13&lt;/span&gt;&lt;/span&gt;&lt;/div&gt;" style="rounded=0;whiteSpace=wrap;html=1;fillColor=#f8cecc;strokeColor=#b85450;align=center;fontStyle=1" vertex="1" parent="1">
          <mxGeometry x="590" y="1086" width="110" height="80" as="geometry" />
        </mxCell>
        <mxCell id="L_XBA1jwa-UQU-hqbk6I-83" value="&lt;div style=&quot;text-align: justify; line-height: 150%;&quot;&gt;value (26 bytes)&lt;/div&gt;&lt;div style=&quot;text-align: justify; line-height: 150%;&quot;&gt;&lt;span style=&quot;background-color: initial;&quot;&gt;pos: &lt;span style=&quot;font-weight: 400;&quot;&gt;48&lt;/span&gt;&lt;/span&gt;&lt;/div&gt;&lt;div style=&quot;text-align: justify; line-height: 150%;&quot;&gt;&lt;span style=&quot;background-color: initial;&quot;&gt;binary: &lt;span style=&quot;font-weight: normal;&quot;&gt;&lt;font style=&quot;font-size: 11px;&quot;&gt;0x00 0x31 ... 0x00&amp;nbsp; 0x36&lt;/font&gt;&lt;/span&gt;&lt;/span&gt;&lt;/div&gt;&lt;div style=&quot;text-align: justify; line-height: 150%;&quot;&gt;&lt;span style=&quot;background-color: initial;&quot;&gt;value:&amp;nbsp;&lt;/span&gt;&lt;span style=&quot;background-color: initial; font-weight: normal;&quot;&gt;&lt;font style=&quot;font-size: 11px;&quot;&gt;1691167327716&lt;/font&gt;&lt;/span&gt;&lt;/div&gt;" style="rounded=0;whiteSpace=wrap;html=1;fillColor=#f8cecc;strokeColor=#b85450;align=center;fontStyle=1" vertex="1" parent="1">
          <mxGeometry x="700" y="1086" width="180" height="80" as="geometry" />
        </mxCell>
        <mxCell id="L_XBA1jwa-UQU-hqbk6I-84" value="&lt;div style=&quot;text-align: justify; line-height: 150%;&quot;&gt;&lt;span style=&quot;background-color: initial;&quot;&gt;header&lt;/span&gt;&lt;/div&gt;&lt;div style=&quot;text-align: justify; line-height: 150%;&quot;&gt;&lt;span style=&quot;background-color: initial;&quot;&gt;pos: &lt;span style=&quot;font-weight: 400;&quot;&gt;74&lt;/span&gt;&lt;/span&gt;&lt;br&gt;&lt;/div&gt;&lt;div style=&quot;text-align: justify; line-height: 150%;&quot;&gt;&lt;span style=&quot;background-color: initial;&quot;&gt;binary:&amp;nbsp;&lt;/span&gt;&lt;span style=&quot;background-color: initial; font-weight: 400;&quot;&gt;0x02&lt;/span&gt;&lt;/div&gt;&lt;div style=&quot;text-align: justify; line-height: 150%;&quot;&gt;&lt;span style=&quot;background-color: initial;&quot;&gt;value: &lt;span style=&quot;font-weight: 400;&quot;&gt;2&lt;/span&gt;&lt;/span&gt;&lt;/div&gt;" style="rounded=0;whiteSpace=wrap;html=1;fillColor=#f8cecc;strokeColor=#b85450;align=center;fontStyle=1" vertex="1" parent="1">
          <mxGeometry x="150" y="1170" width="110" height="80" as="geometry" />
        </mxCell>
        <mxCell id="L_XBA1jwa-UQU-hqbk6I-85" value="&lt;div style=&quot;text-align: justify; line-height: 150%;&quot;&gt;&lt;span style=&quot;background-color: initial;&quot;&gt;etime&lt;/span&gt;&lt;/div&gt;&lt;div style=&quot;text-align: justify; line-height: 150%;&quot;&gt;&lt;span style=&quot;background-color: initial;&quot;&gt;pos: &lt;span style=&quot;font-weight: 400;&quot;&gt;-&lt;/span&gt;&lt;/span&gt;&lt;/div&gt;&lt;div style=&quot;text-align: justify; line-height: 150%;&quot;&gt;&lt;span style=&quot;background-color: initial;&quot;&gt;binary: &lt;span style=&quot;font-weight: 400;&quot;&gt;-&lt;/span&gt;&lt;/span&gt;&lt;/div&gt;&lt;div style=&quot;text-align: justify; line-height: 150%;&quot;&gt;&lt;span style=&quot;background-color: initial;&quot;&gt;value: &lt;span style=&quot;font-weight: 400;&quot;&gt;-&lt;/span&gt;&lt;/span&gt;&lt;/div&gt;" style="rounded=0;whiteSpace=wrap;html=1;fillColor=#f8cecc;strokeColor=#b85450;align=center;fontStyle=1" vertex="1" parent="1">
          <mxGeometry x="260" y="1170" width="110" height="80" as="geometry" />
        </mxCell>
        <mxCell id="L_XBA1jwa-UQU-hqbk6I-86" value="&lt;div style=&quot;text-align: justify; line-height: 150%;&quot;&gt;&lt;span style=&quot;background-color: initial;&quot;&gt;tag id&lt;/span&gt;&lt;/div&gt;&lt;div style=&quot;text-align: justify; line-height: 150%;&quot;&gt;&lt;span style=&quot;background-color: initial;&quot;&gt;pos: &lt;span style=&quot;font-weight: 400;&quot;&gt;75&lt;/span&gt;&lt;/span&gt;&lt;/div&gt;&lt;div style=&quot;text-align: justify; line-height: 150%;&quot;&gt;&lt;span style=&quot;background-color: initial;&quot;&gt;binary: &lt;span style=&quot;font-weight: 400;&quot;&gt;0x14&lt;/span&gt;&lt;/span&gt;&lt;/div&gt;&lt;div style=&quot;text-align: justify; line-height: 150%;&quot;&gt;&lt;span style=&quot;background-color: initial;&quot;&gt;value: &lt;span style=&quot;font-weight: 400;&quot;&gt;20&lt;/span&gt;&lt;/span&gt;&lt;/div&gt;" style="rounded=0;whiteSpace=wrap;html=1;fillColor=#f8cecc;strokeColor=#b85450;align=center;fontStyle=1" vertex="1" parent="1">
          <mxGeometry x="370" y="1170" width="110" height="80" as="geometry" />
        </mxCell>
        <mxCell id="L_XBA1jwa-UQU-hqbk6I-87" value="&lt;div style=&quot;text-align: justify; line-height: 150%;&quot;&gt;param type&lt;/div&gt;&lt;div style=&quot;text-align: justify; line-height: 150%;&quot;&gt;&lt;span style=&quot;background-color: initial;&quot;&gt;pos: &lt;span style=&quot;font-weight: 400;&quot;&gt;76&lt;/span&gt;&lt;/span&gt;&lt;/div&gt;&lt;div style=&quot;text-align: justify; line-height: 150%;&quot;&gt;&lt;span style=&quot;background-color: initial;&quot;&gt;binary: &lt;span style=&quot;font-weight: 400;&quot;&gt;0x00&lt;/span&gt;&lt;/span&gt;&lt;/div&gt;&lt;div style=&quot;text-align: justify; line-height: 150%;&quot;&gt;&lt;span style=&quot;background-color: initial;&quot;&gt;value: &lt;span style=&quot;font-weight: 400;&quot;&gt;0&lt;/span&gt;&lt;/span&gt;&lt;/div&gt;" style="rounded=0;whiteSpace=wrap;html=1;fillColor=#f8cecc;strokeColor=#b85450;align=center;fontStyle=1" vertex="1" parent="1">
          <mxGeometry x="480" y="1170" width="110" height="80" as="geometry" />
        </mxCell>
        <mxCell id="L_XBA1jwa-UQU-hqbk6I-88" value="&lt;div style=&quot;text-align: justify; line-height: 150%;&quot;&gt;length of value&lt;/div&gt;&lt;div style=&quot;text-align: justify; line-height: 150%;&quot;&gt;&lt;span style=&quot;background-color: initial;&quot;&gt;pos: &lt;span style=&quot;font-weight: 400;&quot;&gt;77&lt;/span&gt;&lt;/span&gt;&lt;/div&gt;&lt;div style=&quot;text-align: justify; line-height: 150%;&quot;&gt;&lt;span style=&quot;background-color: initial;&quot;&gt;binary: &lt;span style=&quot;font-weight: 400;&quot;&gt;0x1e&lt;/span&gt;&lt;/span&gt;&lt;/div&gt;&lt;div style=&quot;text-align: justify; line-height: 150%;&quot;&gt;&lt;span style=&quot;background-color: initial;&quot;&gt;value: &lt;span style=&quot;font-weight: 400;&quot;&gt;30&lt;/span&gt;&lt;/span&gt;&lt;/div&gt;" style="rounded=0;whiteSpace=wrap;html=1;fillColor=#f8cecc;strokeColor=#b85450;align=center;fontStyle=1" vertex="1" parent="1">
          <mxGeometry x="590" y="1170" width="110" height="80" as="geometry" />
        </mxCell>
        <mxCell id="L_XBA1jwa-UQU-hqbk6I-89" value="&lt;div style=&quot;text-align: justify; line-height: 150%;&quot;&gt;value (60 bytes)&lt;/div&gt;&lt;div style=&quot;text-align: justify; line-height: 150%;&quot;&gt;&lt;span style=&quot;background-color: initial;&quot;&gt;pos: &lt;span style=&quot;font-weight: 400;&quot;&gt;78&lt;/span&gt;&lt;/span&gt;&lt;/div&gt;&lt;div style=&quot;text-align: justify; line-height: 150%;&quot;&gt;&lt;span style=&quot;background-color: initial;&quot;&gt;binary: &lt;span style=&quot;font-weight: normal;&quot;&gt;&lt;font style=&quot;font-size: 11px;&quot;&gt;0x00 0x65 ... 0x00&amp;nbsp; 0x67&lt;/font&gt;&lt;/span&gt;&lt;/span&gt;&lt;/div&gt;&lt;div style=&quot;text-align: justify; line-height: 150%;&quot;&gt;&lt;span style=&quot;background-color: initial;&quot;&gt;&lt;font style=&quot;font-size: 11px;&quot;&gt;value:&amp;nbsp;&lt;/font&gt;&lt;/span&gt;&lt;span style=&quot;font-size: 10px; font-weight: normal; background-color: initial;&quot;&gt;esc-ui-service-8dd5b49fd-2gr2g&lt;/span&gt;&lt;/div&gt;" style="rounded=0;whiteSpace=wrap;html=1;fillColor=#f8cecc;strokeColor=#b85450;align=center;fontStyle=1" vertex="1" parent="1">
          <mxGeometry x="700" y="1170" width="180" height="80" as="geometry" />
        </mxCell>
        <mxCell id="L_XBA1jwa-UQU-hqbk6I-90" value="&lt;div style=&quot;text-align: justify; line-height: 150%;&quot;&gt;&lt;span style=&quot;background-color: initial;&quot;&gt;header&lt;/span&gt;&lt;/div&gt;&lt;div style=&quot;text-align: justify; line-height: 150%;&quot;&gt;&lt;span style=&quot;background-color: initial;&quot;&gt;pos: &lt;span style=&quot;font-weight: 400;&quot;&gt;138&lt;/span&gt;&lt;/span&gt;&lt;br&gt;&lt;/div&gt;&lt;div style=&quot;text-align: justify; line-height: 150%;&quot;&gt;&lt;span style=&quot;background-color: initial;&quot;&gt;binary:&amp;nbsp;&lt;/span&gt;&lt;span style=&quot;background-color: initial; font-weight: 400;&quot;&gt;0x02&lt;/span&gt;&lt;/div&gt;&lt;div style=&quot;text-align: justify; line-height: 150%;&quot;&gt;&lt;span style=&quot;background-color: initial;&quot;&gt;value: &lt;span style=&quot;font-weight: 400;&quot;&gt;2&lt;/span&gt;&lt;/span&gt;&lt;/div&gt;" style="rounded=0;whiteSpace=wrap;html=1;fillColor=#f8cecc;strokeColor=#b85450;align=center;fontStyle=1" vertex="1" parent="1">
          <mxGeometry x="150" y="1254" width="110" height="80" as="geometry" />
        </mxCell>
        <mxCell id="L_XBA1jwa-UQU-hqbk6I-91" value="&lt;div style=&quot;text-align: justify; line-height: 150%;&quot;&gt;&lt;span style=&quot;background-color: initial;&quot;&gt;etime&lt;/span&gt;&lt;/div&gt;&lt;div style=&quot;text-align: justify; line-height: 150%;&quot;&gt;&lt;span style=&quot;background-color: initial;&quot;&gt;pos: &lt;span style=&quot;font-weight: 400;&quot;&gt;-&lt;/span&gt;&lt;/span&gt;&lt;/div&gt;&lt;div style=&quot;text-align: justify; line-height: 150%;&quot;&gt;&lt;span style=&quot;background-color: initial;&quot;&gt;binary: &lt;span style=&quot;font-weight: 400;&quot;&gt;-&lt;/span&gt;&lt;/span&gt;&lt;/div&gt;&lt;div style=&quot;text-align: justify; line-height: 150%;&quot;&gt;&lt;span style=&quot;background-color: initial;&quot;&gt;value: &lt;span style=&quot;font-weight: 400;&quot;&gt;-&lt;/span&gt;&lt;/span&gt;&lt;/div&gt;" style="rounded=0;whiteSpace=wrap;html=1;fillColor=#f8cecc;strokeColor=#b85450;align=center;fontStyle=1" vertex="1" parent="1">
          <mxGeometry x="260" y="1254" width="110" height="80" as="geometry" />
        </mxCell>
        <mxCell id="L_XBA1jwa-UQU-hqbk6I-92" value="&lt;div style=&quot;text-align: justify; line-height: 150%;&quot;&gt;&lt;span style=&quot;background-color: initial;&quot;&gt;tag id&lt;/span&gt;&lt;/div&gt;&lt;div style=&quot;text-align: justify; line-height: 150%;&quot;&gt;&lt;span style=&quot;background-color: initial;&quot;&gt;pos: &lt;span style=&quot;font-weight: 400;&quot;&gt;139&lt;/span&gt;&lt;/span&gt;&lt;/div&gt;&lt;div style=&quot;text-align: justify; line-height: 150%;&quot;&gt;&lt;span style=&quot;background-color: initial;&quot;&gt;binary: &lt;span style=&quot;font-weight: 400;&quot;&gt;0x15&lt;/span&gt;&lt;/span&gt;&lt;/div&gt;&lt;div style=&quot;text-align: justify; line-height: 150%;&quot;&gt;&lt;span style=&quot;background-color: initial;&quot;&gt;value: &lt;span style=&quot;font-weight: 400;&quot;&gt;21&lt;/span&gt;&lt;/span&gt;&lt;/div&gt;" style="rounded=0;whiteSpace=wrap;html=1;fillColor=#f8cecc;strokeColor=#b85450;align=center;fontStyle=1" vertex="1" parent="1">
          <mxGeometry x="370" y="1254" width="110" height="80" as="geometry" />
        </mxCell>
        <mxCell id="L_XBA1jwa-UQU-hqbk6I-93" value="&lt;div style=&quot;text-align: justify; line-height: 150%;&quot;&gt;param type&lt;/div&gt;&lt;div style=&quot;text-align: justify; line-height: 150%;&quot;&gt;&lt;span style=&quot;background-color: initial;&quot;&gt;pos: &lt;span style=&quot;font-weight: 400;&quot;&gt;140&lt;/span&gt;&lt;/span&gt;&lt;/div&gt;&lt;div style=&quot;text-align: justify; line-height: 150%;&quot;&gt;&lt;span style=&quot;background-color: initial;&quot;&gt;binary: &lt;span style=&quot;font-weight: 400;&quot;&gt;0x00&lt;/span&gt;&lt;/span&gt;&lt;/div&gt;&lt;div style=&quot;text-align: justify; line-height: 150%;&quot;&gt;&lt;span style=&quot;background-color: initial;&quot;&gt;value: &lt;span style=&quot;font-weight: 400;&quot;&gt;0&lt;/span&gt;&lt;/span&gt;&lt;/div&gt;" style="rounded=0;whiteSpace=wrap;html=1;fillColor=#f8cecc;strokeColor=#b85450;align=center;fontStyle=1" vertex="1" parent="1">
          <mxGeometry x="480" y="1254" width="110" height="80" as="geometry" />
        </mxCell>
        <mxCell id="L_XBA1jwa-UQU-hqbk6I-94" value="&lt;div style=&quot;text-align: justify; line-height: 150%;&quot;&gt;length of value&lt;/div&gt;&lt;div style=&quot;text-align: justify; line-height: 150%;&quot;&gt;&lt;span style=&quot;background-color: initial;&quot;&gt;pos: &lt;span style=&quot;font-weight: 400;&quot;&gt;141&lt;/span&gt;&lt;/span&gt;&lt;/div&gt;&lt;div style=&quot;text-align: justify; line-height: 150%;&quot;&gt;&lt;span style=&quot;background-color: initial;&quot;&gt;binary: &lt;span style=&quot;font-weight: 400;&quot;&gt;0x04&lt;/span&gt;&lt;/span&gt;&lt;/div&gt;&lt;div style=&quot;text-align: justify; line-height: 150%;&quot;&gt;&lt;span style=&quot;background-color: initial;&quot;&gt;value: &lt;span style=&quot;font-weight: 400;&quot;&gt;4&lt;/span&gt;&lt;/span&gt;&lt;/div&gt;" style="rounded=0;whiteSpace=wrap;html=1;fillColor=#f8cecc;strokeColor=#b85450;align=center;fontStyle=1" vertex="1" parent="1">
          <mxGeometry x="590" y="1254" width="110" height="80" as="geometry" />
        </mxCell>
        <mxCell id="L_XBA1jwa-UQU-hqbk6I-95" value="&lt;div style=&quot;text-align: justify; line-height: 150%;&quot;&gt;value (8 bytes)&lt;/div&gt;&lt;div style=&quot;text-align: justify; line-height: 150%;&quot;&gt;&lt;span style=&quot;background-color: initial;&quot;&gt;pos: &lt;span style=&quot;font-weight: 400;&quot;&gt;142&lt;/span&gt;&lt;/span&gt;&lt;/div&gt;&lt;div style=&quot;text-align: justify; line-height: 150%;&quot;&gt;&lt;span style=&quot;background-color: initial;&quot;&gt;binary: &lt;span style=&quot;font-weight: normal;&quot;&gt;&lt;font style=&quot;font-size: 11px;&quot;&gt;0x00 0x6d ... 0x00&amp;nbsp; 0x6e&lt;/font&gt;&lt;/span&gt;&lt;/span&gt;&lt;/div&gt;&lt;div style=&quot;text-align: justify; line-height: 150%;&quot;&gt;&lt;span style=&quot;background-color: initial;&quot;&gt;&lt;font style=&quot;font-size: 12px;&quot;&gt;value&lt;/font&gt;&lt;font style=&quot;font-size: 13px;&quot;&gt;:&amp;nbsp;&lt;/font&gt;&lt;/span&gt;&lt;span style=&quot;font-size: 13px; font-weight: normal; background-color: initial;&quot;&gt;main&lt;/span&gt;&lt;/div&gt;" style="rounded=0;whiteSpace=wrap;html=1;fillColor=#f8cecc;strokeColor=#b85450;align=center;fontStyle=1" vertex="1" parent="1">
          <mxGeometry x="700" y="1254" width="180" height="80" as="geometry" />
        </mxCell>
        <mxCell id="L_XBA1jwa-UQU-hqbk6I-96" value="&lt;div style=&quot;text-align: justify; line-height: 150%;&quot;&gt;&lt;span style=&quot;background-color: initial;&quot;&gt;header&lt;/span&gt;&lt;/div&gt;&lt;div style=&quot;text-align: justify; line-height: 150%;&quot;&gt;&lt;span style=&quot;background-color: initial;&quot;&gt;pos: &lt;span style=&quot;font-weight: 400;&quot;&gt;150&lt;/span&gt;&lt;/span&gt;&lt;br&gt;&lt;/div&gt;&lt;div style=&quot;text-align: justify; line-height: 150%;&quot;&gt;&lt;span style=&quot;background-color: initial;&quot;&gt;binary:&amp;nbsp;&lt;/span&gt;&lt;span style=&quot;background-color: initial; font-weight: 400;&quot;&gt;0x02&lt;/span&gt;&lt;/div&gt;&lt;div style=&quot;text-align: justify; line-height: 150%;&quot;&gt;&lt;span style=&quot;background-color: initial;&quot;&gt;value: &lt;span style=&quot;font-weight: 400;&quot;&gt;2&lt;/span&gt;&lt;/span&gt;&lt;/div&gt;" style="rounded=0;whiteSpace=wrap;html=1;fillColor=#f8cecc;strokeColor=#b85450;align=center;fontStyle=1" vertex="1" parent="1">
          <mxGeometry x="150" y="1338" width="110" height="80" as="geometry" />
        </mxCell>
        <mxCell id="L_XBA1jwa-UQU-hqbk6I-97" value="&lt;div style=&quot;text-align: justify; line-height: 150%;&quot;&gt;&lt;span style=&quot;background-color: initial;&quot;&gt;etime&lt;/span&gt;&lt;/div&gt;&lt;div style=&quot;text-align: justify; line-height: 150%;&quot;&gt;&lt;span style=&quot;background-color: initial;&quot;&gt;pos: &lt;span style=&quot;font-weight: 400;&quot;&gt;-&lt;/span&gt;&lt;/span&gt;&lt;/div&gt;&lt;div style=&quot;text-align: justify; line-height: 150%;&quot;&gt;&lt;span style=&quot;background-color: initial;&quot;&gt;binary: &lt;span style=&quot;font-weight: 400;&quot;&gt;-&lt;/span&gt;&lt;/span&gt;&lt;/div&gt;&lt;div style=&quot;text-align: justify; line-height: 150%;&quot;&gt;&lt;span style=&quot;background-color: initial;&quot;&gt;value: &lt;span style=&quot;font-weight: 400;&quot;&gt;-&lt;/span&gt;&lt;/span&gt;&lt;/div&gt;" style="rounded=0;whiteSpace=wrap;html=1;fillColor=#f8cecc;strokeColor=#b85450;align=center;fontStyle=1" vertex="1" parent="1">
          <mxGeometry x="260" y="1338" width="110" height="80" as="geometry" />
        </mxCell>
        <mxCell id="L_XBA1jwa-UQU-hqbk6I-98" value="&lt;div style=&quot;text-align: justify; line-height: 150%;&quot;&gt;&lt;span style=&quot;background-color: initial;&quot;&gt;tag id&lt;/span&gt;&lt;/div&gt;&lt;div style=&quot;text-align: justify; line-height: 150%;&quot;&gt;&lt;span style=&quot;background-color: initial;&quot;&gt;pos: &lt;span style=&quot;font-weight: 400;&quot;&gt;151&lt;/span&gt;&lt;/span&gt;&lt;/div&gt;&lt;div style=&quot;text-align: justify; line-height: 150%;&quot;&gt;&lt;span style=&quot;background-color: initial;&quot;&gt;binary: &lt;span style=&quot;font-weight: 400;&quot;&gt;0x18&lt;/span&gt;&lt;/span&gt;&lt;/div&gt;&lt;div style=&quot;text-align: justify; line-height: 150%;&quot;&gt;&lt;span style=&quot;background-color: initial;&quot;&gt;value: &lt;span style=&quot;font-weight: 400;&quot;&gt;24&lt;/span&gt;&lt;/span&gt;&lt;/div&gt;" style="rounded=0;whiteSpace=wrap;html=1;fillColor=#f8cecc;strokeColor=#b85450;align=center;fontStyle=1" vertex="1" parent="1">
          <mxGeometry x="370" y="1338" width="110" height="80" as="geometry" />
        </mxCell>
        <mxCell id="L_XBA1jwa-UQU-hqbk6I-99" value="&lt;div style=&quot;text-align: justify; line-height: 150%;&quot;&gt;param type&lt;/div&gt;&lt;div style=&quot;text-align: justify; line-height: 150%;&quot;&gt;&lt;span style=&quot;background-color: initial;&quot;&gt;pos: &lt;span style=&quot;font-weight: 400;&quot;&gt;152&lt;/span&gt;&lt;/span&gt;&lt;/div&gt;&lt;div style=&quot;text-align: justify; line-height: 150%;&quot;&gt;&lt;span style=&quot;background-color: initial;&quot;&gt;binary: &lt;span style=&quot;font-weight: 400;&quot;&gt;0x00&lt;/span&gt;&lt;/span&gt;&lt;/div&gt;&lt;div style=&quot;text-align: justify; line-height: 150%;&quot;&gt;&lt;span style=&quot;background-color: initial;&quot;&gt;value: &lt;span style=&quot;font-weight: 400;&quot;&gt;0&lt;/span&gt;&lt;/span&gt;&lt;/div&gt;" style="rounded=0;whiteSpace=wrap;html=1;fillColor=#f8cecc;strokeColor=#b85450;align=center;fontStyle=1" vertex="1" parent="1">
          <mxGeometry x="480" y="1338" width="110" height="80" as="geometry" />
        </mxCell>
        <mxCell id="L_XBA1jwa-UQU-hqbk6I-100" value="&lt;div style=&quot;text-align: justify; line-height: 150%;&quot;&gt;length of value&lt;/div&gt;&lt;div style=&quot;text-align: justify; line-height: 150%;&quot;&gt;&lt;span style=&quot;background-color: initial;&quot;&gt;pos: &lt;span style=&quot;font-weight: 400;&quot;&gt;153&lt;/span&gt;&lt;/span&gt;&lt;/div&gt;&lt;div style=&quot;text-align: justify; line-height: 150%;&quot;&gt;&lt;span style=&quot;background-color: initial;&quot;&gt;binary: &lt;span style=&quot;font-weight: 400;&quot;&gt;0x04&lt;/span&gt;&lt;/span&gt;&lt;/div&gt;&lt;div style=&quot;text-align: justify; line-height: 150%;&quot;&gt;&lt;span style=&quot;background-color: initial;&quot;&gt;value: &lt;span style=&quot;font-weight: 400;&quot;&gt;4&lt;/span&gt;&lt;/span&gt;&lt;/div&gt;" style="rounded=0;whiteSpace=wrap;html=1;fillColor=#f8cecc;strokeColor=#b85450;align=center;fontStyle=1" vertex="1" parent="1">
          <mxGeometry x="590" y="1338" width="110" height="80" as="geometry" />
        </mxCell>
        <mxCell id="L_XBA1jwa-UQU-hqbk6I-101" value="&lt;div style=&quot;text-align: justify; line-height: 150%;&quot;&gt;value (8 bytes)&lt;/div&gt;&lt;div style=&quot;text-align: justify; line-height: 150%;&quot;&gt;&lt;span style=&quot;background-color: initial;&quot;&gt;pos: &lt;span style=&quot;font-weight: 400;&quot;&gt;154&lt;/span&gt;&lt;/span&gt;&lt;/div&gt;&lt;div style=&quot;text-align: justify; line-height: 150%;&quot;&gt;&lt;span style=&quot;background-color: initial;&quot;&gt;binary: &lt;span style=&quot;font-weight: normal;&quot;&gt;&lt;font style=&quot;font-size: 11px;&quot;&gt;0x00 0x31 ... 0x00&amp;nbsp; 0x34&lt;/font&gt;&lt;/span&gt;&lt;/span&gt;&lt;/div&gt;&lt;div style=&quot;text-align: justify; line-height: 150%;&quot;&gt;&lt;span style=&quot;background-color: initial;&quot;&gt;&lt;font style=&quot;font-size: 12px;&quot;&gt;value&lt;/font&gt;&lt;font style=&quot;font-size: 13px;&quot;&gt;: &lt;span style=&quot;font-weight: 400;&quot;&gt;1184&lt;/span&gt;&lt;/font&gt;&lt;/span&gt;&lt;/div&gt;" style="rounded=0;whiteSpace=wrap;html=1;fillColor=#f8cecc;strokeColor=#b85450;align=center;fontStyle=1" vertex="1" parent="1">
          <mxGeometry x="700" y="1338" width="180" height="80" as="geometry" />
        </mxCell>
        <mxCell id="L_XBA1jwa-UQU-hqbk6I-102" value="&lt;div style=&quot;text-align: justify; line-height: 150%;&quot;&gt;&lt;span style=&quot;background-color: initial;&quot;&gt;header&lt;/span&gt;&lt;/div&gt;&lt;div style=&quot;text-align: justify; line-height: 150%;&quot;&gt;&lt;span style=&quot;background-color: initial;&quot;&gt;pos: &lt;span style=&quot;font-weight: 400;&quot;&gt;155&lt;/span&gt;&lt;/span&gt;&lt;br&gt;&lt;/div&gt;&lt;div style=&quot;text-align: justify; line-height: 150%;&quot;&gt;&lt;span style=&quot;background-color: initial;&quot;&gt;binary:&amp;nbsp;&lt;/span&gt;&lt;span style=&quot;background-color: initial; font-weight: 400;&quot;&gt;0x01&lt;/span&gt;&lt;/div&gt;&lt;div style=&quot;text-align: justify; line-height: 150%;&quot;&gt;&lt;span style=&quot;background-color: initial;&quot;&gt;value: &lt;span style=&quot;font-weight: 400;&quot;&gt;1&lt;/span&gt;&lt;/span&gt;&lt;/div&gt;" style="rounded=0;whiteSpace=wrap;html=1;fillColor=#f8cecc;strokeColor=#b85450;align=center;fontStyle=1" vertex="1" parent="1">
          <mxGeometry x="150" y="1423" width="110" height="80" as="geometry" />
        </mxCell>
        <mxCell id="L_XBA1jwa-UQU-hqbk6I-103" value="&lt;div style=&quot;text-align: justify; line-height: 150%;&quot;&gt;&lt;span style=&quot;background-color: initial;&quot;&gt;etime&lt;/span&gt;&lt;/div&gt;&lt;div style=&quot;text-align: justify; line-height: 150%;&quot;&gt;&lt;span style=&quot;background-color: initial;&quot;&gt;pos: &lt;span style=&quot;font-weight: 400;&quot;&gt;-&lt;/span&gt;&lt;/span&gt;&lt;/div&gt;&lt;div style=&quot;text-align: justify; line-height: 150%;&quot;&gt;&lt;span style=&quot;background-color: initial;&quot;&gt;binary: &lt;span style=&quot;font-weight: 400;&quot;&gt;-&lt;/span&gt;&lt;/span&gt;&lt;/div&gt;&lt;div style=&quot;text-align: justify; line-height: 150%;&quot;&gt;&lt;span style=&quot;background-color: initial;&quot;&gt;value: &lt;span style=&quot;font-weight: 400;&quot;&gt;-&lt;/span&gt;&lt;/span&gt;&lt;/div&gt;" style="rounded=0;whiteSpace=wrap;html=1;fillColor=#f8cecc;strokeColor=#b85450;align=center;fontStyle=1" vertex="1" parent="1">
          <mxGeometry x="260" y="1423" width="110" height="80" as="geometry" />
        </mxCell>
        <mxCell id="L_XBA1jwa-UQU-hqbk6I-104" value="&lt;div style=&quot;text-align: justify; line-height: 150%;&quot;&gt;&lt;span style=&quot;background-color: initial;&quot;&gt;tag id&lt;/span&gt;&lt;/div&gt;&lt;div style=&quot;text-align: justify; line-height: 150%;&quot;&gt;&lt;span style=&quot;background-color: initial;&quot;&gt;pos: &lt;span style=&quot;font-weight: 400;&quot;&gt;-&lt;/span&gt;&lt;/span&gt;&lt;/div&gt;&lt;div style=&quot;text-align: justify; line-height: 150%;&quot;&gt;&lt;span style=&quot;background-color: initial;&quot;&gt;binary: &lt;span style=&quot;font-weight: 400;&quot;&gt;-&lt;/span&gt;&lt;/span&gt;&lt;/div&gt;&lt;div style=&quot;text-align: justify; line-height: 150%;&quot;&gt;&lt;span style=&quot;background-color: initial;&quot;&gt;value: &lt;span style=&quot;font-weight: 400;&quot;&gt;-&lt;/span&gt;&lt;/span&gt;&lt;/div&gt;" style="rounded=0;whiteSpace=wrap;html=1;fillColor=#f8cecc;strokeColor=#b85450;align=center;fontStyle=1" vertex="1" parent="1">
          <mxGeometry x="370" y="1423" width="110" height="80" as="geometry" />
        </mxCell>
        <mxCell id="L_XBA1jwa-UQU-hqbk6I-105" value="&lt;div style=&quot;text-align: justify; line-height: 150%;&quot;&gt;....&lt;/div&gt;" style="rounded=0;whiteSpace=wrap;html=1;fillColor=#f8cecc;strokeColor=#b85450;align=center;fontStyle=1" vertex="1" parent="1">
          <mxGeometry x="150" y="1508" width="730" height="30" as="geometry" />
        </mxCell>
        <mxCell id="L_XBA1jwa-UQU-hqbk6I-106" value="&lt;b&gt;Trace #1&lt;/b&gt;" style="text;html=1;strokeColor=none;fillColor=none;align=center;verticalAlign=middle;whiteSpace=wrap;rounded=0;" vertex="1" parent="1">
          <mxGeometry x="830" y="230" width="60" height="30" as="geometry" />
        </mxCell>
        <mxCell id="L_XBA1jwa-UQU-hqbk6I-107" value="&lt;b&gt;Trace #n&lt;/b&gt;" style="text;html=1;strokeColor=none;fillColor=none;align=center;verticalAlign=middle;whiteSpace=wrap;rounded=0;" vertex="1" parent="1">
          <mxGeometry x="827" y="1570" width="60" height="30" as="geometry" />
        </mxCell>
      </root>
    </mxGraphModel>
  </diagram>
</mxfile>
